<svg width="24" height="25" viewBox="0 0 24 25" fill="currentColor" xmlns="http://www.w3.org/2000/svg">
  <path d="M13.717 2.6051L17.451 4.0391L16.734 5.9061L15.8 5.5471L15.054 7.4921C15.833 7.9541 16.498 8.5861 16.999 9.3381L18.902 8.4911L18.495 7.5771L20.322 6.7641L21.949 10.4181L20.122 11.2311L19.715 10.3181L17.813 11.1651C17.935 11.6421 18 12.1431 18 12.6581C18 13.0641 17.96 13.4611 17.883 13.8451L19.827 14.5911L20.185 13.6581L22.053 14.3751L20.619 18.1091L18.752 17.3921L19.11 16.4591L17.166 15.7121C16.704 16.4911 16.072 17.1561 15.32 17.6571L16.167 19.5601L17.081 19.1531L17.894 20.9801L14.24 22.6071L13.427 20.7801L14.34 20.3731L13.493 18.4711C13.016 18.5931 12.515 18.6581 12 18.6581C11.593 18.6581 11.196 18.6181 10.812 18.5401L10.066 20.4851L11 20.8431L10.283 22.7111L6.54902 21.2771L7.26602 19.4101L8.19802 19.7681L8.94602 17.8241C8.16702 17.3621 7.50202 16.7301 7.00002 15.9781L5.09702 16.8251L5.50402 17.7391L3.67702 18.5521L2.05002 14.8981L3.87702 14.0851L4.28302 14.9991L6.18602 14.1511C6.06502 13.6741 6.00002 13.1731 6.00002 12.6581C6.00002 12.2521 6.04002 11.8551 6.11702 11.4711L4.17202 10.7251L3.81502 11.6581L1.94702 10.9411L3.38102 7.2081L5.24802 7.9251L4.88902 8.8581L6.83402 9.6051C7.29602 8.8251 7.92802 8.1601 8.68002 7.6581L7.83302 5.7551L6.91902 6.1621L6.10602 4.3351L9.76002 2.7091L10.573 4.5361L9.66002 4.9431L10.507 6.8451C10.984 6.7231 11.485 6.6581 12 6.6581C12.406 6.6581 12.803 6.6981 13.187 6.7751L13.932 4.8301L13 4.4731L13.717 2.6051ZM10.134 13.8901C9.85802 14.3681 10.022 14.9801 10.5 15.2561C10.978 15.5321 11.59 15.3681 11.866 14.8901C12.142 14.4121 11.978 13.8001 11.5 13.5241C11.022 13.2481 10.41 13.4121 10.134 13.8901ZM14 11.6581C13.448 11.6581 13 12.1061 13 12.6581C13 13.2101 13.448 13.6581 14 13.6581C14.552 13.6581 15 13.2101 15 12.6581C15 12.1061 14.552 11.6581 14 11.6581ZM10.5 10.0601C10.022 10.3361 9.85802 10.9481 10.134 11.4261C10.41 11.9041 11.022 12.0681 11.5 11.7921C11.978 11.5161 12.142 10.9041 11.866 10.4261C11.59 9.9481 10.978 9.7841 10.5 10.0601Z" />
</svg>
